<svg width="14" height="8" viewBox="0 0 14 8" fill="none" xmlns="http://www.w3.org/2000/svg">
<path d="M13.9982 1.13526C13.9987 0.870471 13.9175 0.613858 13.7687 0.40997C13.6849 0.295218 13.5821 0.200361 13.466 0.130833C13.3499 0.0613052 13.2229 0.018472 13.0922 0.00478683C12.9615 -0.00889833 12.8297 0.00683367 12.7044 0.0510814C12.5791 0.0953292 12.4626 0.167222 12.3618 0.262646L7.01368 5.33967L1.65557 0.443969C1.5535 0.349833 1.43607 0.279534 1.31001 0.237114C1.18395 0.194694 1.05175 0.180989 0.921013 0.196785C0.790274 0.212582 0.663573 0.257569 0.548193 0.329162C0.432812 0.400755 0.331026 0.497541 0.248686 0.613958C0.157851 0.731212 0.0893352 0.868525 0.0474391 1.01728C0.00554292 1.16604 -0.00882892 1.32302 0.0052248 1.47838C0.0192785 1.63375 0.0614547 1.78413 0.129107 1.9201C0.196758 2.05608 0.288425 2.1747 0.398354 2.26853L6.38508 7.7422C6.56361 7.90888 6.78756 8 7.01867 8C7.24979 8 7.47373 7.90888 7.65227 7.7422L13.639 2.07587C13.7597 1.96218 13.8552 1.81777 13.9176 1.65434C13.98 1.49091 14.0076 1.31308 13.9982 1.13526Z" fill="#888B97"/>
</svg>
