<?xml version="1.0" encoding="utf-8"?>
<svg xmlns="http://www.w3.org/2000/svg">
  <defs>
  <symbol id="button-white-right-icon" viewBox="0 0 8 14">
    <path d="M1.13526 0.00180435C0.87047 0.00134945 0.613858 0.0825443 0.40997 0.231296C0.295217 0.315059 0.200361 0.417933 0.130833 0.534022C0.0613047 0.650112 0.0184714 0.777137 0.00478626 0.907824C-0.0088989 1.03851 0.00683311 1.17029 0.0510809 1.29562C0.0953286 1.42094 0.167222 1.53735 0.262645 1.63818L5.33967 6.98632L0.443969 12.3444C0.349833 12.4465 0.279534 12.5639 0.237114 12.69C0.194694 12.8161 0.180989 12.9482 0.196785 13.079C0.212582 13.2097 0.257569 13.3364 0.329162 13.4518C0.400755 13.5672 0.497541 13.669 0.613958 13.7513C0.731212 13.8421 0.868525 13.9107 1.01728 13.9526C1.16604 13.9945 1.32302 14.0088 1.47838 13.9948C1.63375 13.9807 1.78413 13.9385 1.9201 13.8709C2.05608 13.8032 2.1747 13.7116 2.26853 13.6016L7.7422 7.61492C7.90888 7.43638 8 7.21244 8 6.98133C8 6.75021 7.90888 6.52627 7.7422 6.34773L2.07587 0.361009C1.96218 0.240259 1.81777 0.144807 1.65434 0.0823965C1.49091 0.0199862 1.31308 -0.00762463 1.13526 0.00180435Z" />
  </symbol>
  <symbol id="button-white-left-icon" viewBox="0 0 8 14">
    <path d="M6.86474 0.00180435C7.12953 0.00134945 7.38614 0.0825443 7.59003 0.231296C7.70478 0.315059 7.79964 0.417933 7.86917 0.534022C7.9387 0.650112 7.98153 0.777137 7.99521 0.907824C8.0089 1.03851 7.99317 1.17029 7.94892 1.29562C7.90467 1.42094 7.83278 1.53735 7.73735 1.63818L2.66033 6.98632L7.55603 12.3444C7.65017 12.4465 7.72047 12.5639 7.76289 12.69C7.80531 12.8161 7.81901 12.9482 7.80321 13.079C7.78742 13.2097 7.74243 13.3364 7.67084 13.4518C7.59925 13.5672 7.50246 13.669 7.38604 13.7513C7.26879 13.8421 7.13147 13.9107 6.98272 13.9526C6.83396 13.9945 6.67698 14.0088 6.52162 13.9948C6.36625 13.9807 6.21587 13.9385 6.0799 13.8709C5.94392 13.8032 5.8253 13.7116 5.73147 13.6016L0.257804 7.61492C0.0911212 7.43638 0 7.21244 0 6.98133C0 6.75021 0.0911212 6.52627 0.257804 6.34773L5.92413 0.361009C6.03782 0.240259 6.18223 0.144807 6.34566 0.0823965C6.50909 0.0199862 6.68692 -0.00762463 6.86474 0.00180435Z" fill="#10B981"/>
  </symbol>
  <symbol id="button-white-bottom-icon" viewBox="0 0 10 6">
    <path d="M9.66544 0.75684C9.66575 0.580314 9.61162 0.409239 9.51245 0.273314C9.45661 0.196812 9.38803 0.133574 9.31063 0.0872222C9.23324 0.0408702 9.14856 0.0123147 9.06143 0.00319122C8.97431 -0.00593222 8.88645 0.00455578 8.8029 0.0340543C8.71935 0.0635528 8.64175 0.111482 8.57453 0.175097L5.0091 3.55978L1.43702 0.295979C1.36898 0.233222 1.29069 0.186356 1.20665 0.158076C1.12261 0.129796 1.03448 0.120659 0.947321 0.13119C0.860162 0.141721 0.775695 0.171713 0.698775 0.219441C0.621854 0.26717 0.553997 0.331694 0.499104 0.409305C0.438547 0.487475 0.39287 0.579017 0.364939 0.678187C0.337008 0.777357 0.327427 0.882014 0.336796 0.985589C0.346165 1.08916 0.374283 1.18942 0.419384 1.28007C0.464485 1.37072 0.525596 1.4498 0.598882 1.51235L4.59003 5.16146C4.70906 5.27259 4.85835 5.33333 5.01243 5.33333C5.1665 5.33333 5.3158 5.27259 5.43483 5.16146L9.42597 1.38391C9.50647 1.30812 9.57011 1.21185 9.61172 1.10289C9.65332 0.993942 9.67173 0.875384 9.66544 0.75684Z" />
  </symbol>
  <symbol id="button-cookies-close" viewBox="0 0 24 24">
    <path d="M4.92896 4.92896L19.0711 19.0711" stroke="#1B1C57" stroke-width="2" stroke-linecap="round" stroke-linejoin="round"/>
    <path d="M19.071 4.92896L4.92891 19.0711" stroke="#1B1C57" stroke-width="2" stroke-linecap="round" stroke-linejoin="round"/>
  </symbol>
  <symbol id="cookies-icon" viewBox="0 0 24 24">
    <path fill-rule="evenodd" clip-rule="evenodd" d="M18.3323 1.95679C18.8813 1.95679 19.3272 2.40489 19.3272 2.95666C19.3272 3.50843 18.8813 3.95653 18.3323 3.95653C17.7834 3.95653 17.3375 3.50843 17.3375 2.95666C17.3392 2.40489 17.7834 1.95679 18.3323 1.95679ZM18.5985 10.6647C19.4569 11.9522 20.5432 12.3468 21.9539 11.4756C22.0005 11.9605 22.0121 12.4554 21.9872 12.9571C21.7094 18.5015 17.0131 22.7702 11.4968 22.491C5.98213 22.2101 1.73508 17.4899 2.01289 11.9472C2.28904 6.40271 7.14828 2.08721 12.663 2.36643C12.1739 3.9047 12.5881 5.27075 13.8324 5.73557C12.7045 9.37724 15.2232 11.7599 18.5985 10.6647ZM6.99523 9.94741C7.82202 9.94741 8.49077 10.6212 8.49077 11.4506C8.49077 12.2799 7.82035 12.9537 6.99523 12.9537C6.16845 12.9537 5.4997 12.2799 5.4997 11.4506C5.4997 10.6212 6.17011 9.94741 6.99523 9.94741ZM11.7064 11.8635C12.1822 11.8635 12.5681 12.2515 12.5681 12.7297C12.5681 13.2079 12.1822 13.5958 11.7064 13.5958C11.2306 13.5958 10.8447 13.2079 10.8447 12.7297C10.843 12.2515 11.229 11.8635 11.7064 11.8635ZM7.96675 15.4317C8.54733 15.4317 9.01811 15.9048 9.01811 16.4884C9.01811 17.0719 8.54733 17.5451 7.96675 17.5451C7.38617 17.5451 6.91538 17.0719 6.91538 16.4884C6.91538 15.9032 7.38617 15.4317 7.96675 15.4317ZM10.2325 7.34573C10.6883 7.34573 11.056 7.71692 11.056 8.17338C11.056 8.63152 10.6867 9.00104 10.2325 9.00104C9.77669 9.00104 9.40905 8.62985 9.40905 8.17338C9.40905 7.71692 9.77836 7.34573 10.2325 7.34573ZM14.7075 15.8012C15.471 15.8012 16.0882 16.4232 16.0882 17.189C16.0882 17.9564 15.4694 18.5767 14.7075 18.5767C13.9439 18.5767 13.3267 17.9547 13.3267 17.189C13.3267 16.4232 13.9456 15.8012 14.7075 15.8012ZM17.6154 5.81917C18.1277 5.81917 18.5436 6.23718 18.5436 6.75216C18.5436 7.26715 18.1277 7.68515 17.6154 7.68515C17.103 7.68515 16.6871 7.26715 16.6871 6.75216C16.6871 6.23718 17.103 5.81917 17.6154 5.81917Z" />
  </symbol>
  <symbol id="location-icon" viewBox="0 0 18 24">
    <path d="M9 0C11.3869 0 13.6761 0.993372 15.364 2.76159C17.0518 4.5298 18 6.92801 18 9.42865C18 13.934 15.0975 18.081 9.402 21.8776C9.28181 21.9575 9.14237 22 9 22C8.85763 22 8.71819 21.9575 8.598 21.8776C2.9025 18.081 0 13.934 0 9.42865C0 6.92801 0.948211 4.5298 2.63604 2.76159C4.32387 0.993372 6.61305 0 9 0ZM9 6.28576C8.20435 6.28576 7.44129 6.61689 6.87868 7.20629C6.31607 7.7957 6 8.5951 6 9.42865C6 10.2622 6.31607 11.0616 6.87868 11.651C7.44129 12.2404 8.20435 12.5715 9 12.5715C9.79565 12.5715 10.5587 12.2404 11.1213 11.651C11.6839 11.0616 12 10.2622 12 9.42865C12 8.5951 11.6839 7.7957 11.1213 7.20629C10.5587 6.61689 9.79565 6.28576 9 6.28576Z" fill="#F59E0B"/>
  </symbol>
  <symbol id="label-danger" viewBox="0 0 12 14">
    <path d="M11.0328 6.33125C10.7295 5.64853 10.2885 5.03575 9.7375 4.53125L9.28281 4.11406C9.26737 4.10029 9.24879 4.09051 9.22869 4.08559C9.2086 4.08067 9.1876 4.08076 9.16754 4.08585C9.14749 4.09095 9.12899 4.10088 9.11367 4.11479C9.09835 4.1287 9.08668 4.14615 9.07969 4.16563L8.87656 4.74844C8.75 5.11406 8.51719 5.4875 8.1875 5.85469C8.16563 5.87813 8.14063 5.88438 8.12344 5.88594C8.10625 5.8875 8.07969 5.88438 8.05625 5.8625C8.03437 5.84375 8.02344 5.81563 8.025 5.7875C8.08281 4.84688 7.80156 3.78594 7.18594 2.63125C6.67656 1.67188 5.96875 0.923439 5.08437 0.401564L4.43906 0.0218763C4.35469 -0.0281237 4.24688 0.0375012 4.25156 0.135939L4.28594 0.885939C4.30937 1.39844 4.25 1.85156 4.10938 2.22813C3.9375 2.68906 3.69062 3.11719 3.375 3.50156C3.15535 3.76869 2.90639 4.01031 2.63281 4.22188C1.97391 4.72838 1.43815 5.3774 1.06562 6.12031C0.694022 6.86971 0.500453 7.69478 0.5 8.53125C0.5 9.26875 0.645312 9.98281 0.932812 10.6563C1.21042 11.3046 1.61103 11.8931 2.1125 12.3891C2.61875 12.8891 3.20625 13.2828 3.86094 13.5563C4.53906 13.8406 5.25781 13.9844 6 13.9844C6.74219 13.9844 7.46094 13.8406 8.13906 13.5578C8.79214 13.286 9.38601 12.8895 9.8875 12.3906C10.3938 11.8906 10.7906 11.3063 11.0672 10.6578C11.3543 9.98622 11.5015 9.26319 11.5 8.53281C11.5 7.77031 11.3438 7.02969 11.0328 6.33125Z" />
  </symbol>
  <symbol id="label-info" viewBox="0 0 12 13">
    <path d="M12 6.22125V12C11.9999 12.1812 11.9508 12.3591 11.8579 12.5147C11.765 12.6703 11.6317 12.7979 11.4723 12.8839C11.3278 12.9621 11.1657 13.0021 11.0014 12.9999H7.99782C7.86521 12.9999 7.73803 12.9473 7.64426 12.8535C7.5505 12.7597 7.49782 12.6325 7.49782 12.4999V9.4995C7.49782 9.36689 7.44514 9.23972 7.35137 9.14595C7.2576 9.05218 7.13043 8.9995 6.99782 8.9995H4.99782C4.86521 8.9995 4.73803 9.05218 4.64426 9.14595C4.5505 9.23972 4.49782 9.36689 4.49782 9.4995V12.4999C4.49782 12.6325 4.44514 12.7597 4.35137 12.8535C4.2576 12.9473 4.13043 12.9999 3.99782 12.9999H1.00013C0.858363 13.0003 0.718156 12.9704 0.588903 12.9121C0.45965 12.8539 0.344338 12.7687 0.250693 12.6623C0.0863065 12.4721 -0.00285834 12.2284 5.886e-06 11.9771V6.22119C0.000114843 6.08187 0.0292798 5.9441 0.085638 5.81668C0.141996 5.68926 0.224309 5.575 0.327318 5.48119L5.32688 0.935378C5.51053 0.767161 5.75053 0.673844 5.99957 0.67382C6.24862 0.673797 6.48864 0.76707 6.67232 0.935253L11.6728 5.48125C11.7757 5.57508 11.858 5.68935 11.9144 5.81676C11.9707 5.94417 11.9999 6.08194 12 6.22125Z" />
  </symbol>
  <symbol id="label-success" viewBox="0 0 14 14">
    <path d="M11.8 3.8H1.79998V3.4L10.6 2.696V3.4H11.8V2.2C11.8 1.32 11.0872 0.702404 10.2168 0.826404L2.18398 1.9736C1.31278 2.0984 0.599976 2.92 0.599976 3.8V11.8C0.599976 12.2244 0.768546 12.6313 1.0686 12.9314C1.36866 13.2314 1.77563 13.4 2.19998 13.4H11.8C12.2243 13.4 12.6313 13.2314 12.9313 12.9314C13.2314 12.6313 13.4 12.2244 13.4 11.8V5.4C13.4 4.97566 13.2314 4.56869 12.9313 4.26863C12.6313 3.96858 12.2243 3.8 11.8 3.8ZM10.6 9.4048C10.4423 9.40475 10.2863 9.37365 10.1406 9.31328C9.99501 9.2529 9.86271 9.16444 9.75128 9.05293C9.63985 8.94143 9.55147 8.80907 9.4912 8.66341C9.43092 8.51775 9.39992 8.36164 9.39997 8.204C9.40003 8.04637 9.43113 7.89028 9.4915 7.74466C9.55188 7.59904 9.64034 7.46674 9.75185 7.35531C9.86335 7.24388 9.99571 7.1555 10.1414 7.09523C10.287 7.03495 10.4431 7.00395 10.6008 7.004C10.9191 7.00411 11.2244 7.13068 11.4495 7.35588C11.6745 7.58107 11.8009 7.88644 11.8008 8.2048C11.8007 8.52317 11.6741 8.82845 11.4489 9.0535C11.2237 9.27854 10.9183 9.40491 10.6 9.4048Z" />
  </symbol>
  <symbol id="logo" viewBox="0 0 117 36">
    <path d="M0 4C0 1.79086 1.79086 0 4 0H28C30.2091 0 32 1.79086 32 4V8C32 21.2548 21.2548 32 8 32H4C1.79086 32 0 30.2091 0 28V4Z" fill="#F59E0B"/>
    <path d="M4 8C4 5.79086 5.79086 4 8 4H32C34.2091 4 36 5.79086 36 8V12C36 25.2548 25.2548 36 12 36H8C5.79086 36 4 34.2091 4 32V8Z" fill="#4BE4C9"/>
    <path d="M55.952 26V14.8H59.408V26H55.952ZM49.28 26V14.8H52.736V26H49.28ZM50.576 21.92L50.592 18.912H57.904V21.92H50.576Z" fill="#1B1C57"/>
    <path d="M65.9835 26.16C65.0555 26.16 64.2289 25.968 63.5035 25.584C62.7782 25.2 62.2075 24.6774 61.7915 24.016C61.3755 23.344 61.1675 22.576 61.1675 21.712C61.1675 20.848 61.3755 20.0854 61.7915 19.424C62.2075 18.752 62.7782 18.224 63.5035 17.84C64.2289 17.456 65.0555 17.264 65.9835 17.264C66.9115 17.264 67.7329 17.456 68.4475 17.84C69.1729 18.224 69.7382 18.752 70.1435 19.424C70.5595 20.0854 70.7675 20.848 70.7675 21.712C70.7675 22.576 70.5595 23.344 70.1435 24.016C69.7382 24.6774 69.1729 25.2 68.4475 25.584C67.7329 25.968 66.9115 26.16 65.9835 26.16ZM65.9835 23.44C66.2715 23.44 66.5275 23.3654 66.7515 23.216C66.9862 23.0667 67.1675 22.864 67.2955 22.608C67.4235 22.3414 67.4875 22.0427 67.4875 21.712C67.4875 21.3707 67.4235 21.072 67.2955 20.816C67.1675 20.5494 66.9862 20.3414 66.7515 20.192C66.5275 20.0427 66.2715 19.9681 65.9835 19.9681C65.6849 19.9681 65.4182 20.0427 65.1835 20.192C64.9595 20.3414 64.7782 20.5494 64.6395 20.816C64.5115 21.072 64.4475 21.3707 64.4475 21.712C64.4475 22.0427 64.5115 22.3414 64.6395 22.608C64.7782 22.864 64.9595 23.0667 65.1835 23.216C65.4182 23.3654 65.6849 23.44 65.9835 23.44Z" fill="#1B1C57"/>
    <path d="M75.234 26.1761C74.5834 26.1761 74.034 26.0427 73.586 25.776C73.138 25.5094 72.7967 25.12 72.562 24.608C72.3274 24.0854 72.21 23.456 72.21 22.72V17.44H75.458V22.448C75.458 22.6827 75.4954 22.88 75.57 23.04C75.6554 23.2 75.7727 23.3227 75.922 23.408C76.0714 23.4934 76.2527 23.536 76.466 23.536C76.626 23.536 76.77 23.5147 76.898 23.472C77.0367 23.4187 77.154 23.344 77.25 23.248C77.346 23.1521 77.4207 23.0454 77.474 22.928C77.5274 22.8 77.554 22.6667 77.554 22.528V17.44H80.802V26H77.826L77.634 24.272L78.242 24.08C78.1247 24.4854 77.9167 24.8481 77.618 25.168C77.33 25.4774 76.978 25.7227 76.562 25.904C76.146 26.0854 75.7034 26.1761 75.234 26.1761Z" fill="#1B1C57"/>
    <path d="M83.0732 26V17.44H86.0812L86.2412 19.168L85.5532 19.36C85.6705 18.9547 85.8785 18.5974 86.1772 18.288C86.4865 17.968 86.8545 17.7174 87.2812 17.536C87.7078 17.3547 88.1612 17.264 88.6412 17.264C89.2812 17.264 89.8252 17.3974 90.2732 17.664C90.7212 17.9307 91.0572 18.3254 91.2812 18.848C91.5158 19.36 91.6332 19.984 91.6332 20.72V26H88.3852V20.992C88.3852 20.7574 88.3478 20.56 88.2732 20.4C88.1985 20.24 88.0865 20.1174 87.9372 20.032C87.7878 19.9467 87.6118 19.904 87.4092 19.904C87.2492 19.904 87.0998 19.9307 86.9612 19.984C86.8332 20.0267 86.7212 20.096 86.6252 20.192C86.5292 20.288 86.4545 20.3947 86.4012 20.512C86.3478 20.6294 86.3212 20.7627 86.3212 20.912V26H84.7052C84.2998 26 83.9585 26 83.6812 26C83.4145 26 83.2118 26 83.0732 26Z" fill="#1B1C57"/>
    <path d="M94.1618 26V15.28H97.4098V26H94.1618ZM92.8338 20.16V17.44H98.8178V20.16H92.8338Z" fill="#1B1C57"/>
    <path d="M104.327 26.16C103.335 26.16 102.481 25.968 101.767 25.584C101.052 25.2 100.503 24.6774 100.119 24.016C99.7345 23.344 99.5425 22.576 99.5425 21.712C99.5425 21.072 99.6492 20.48 99.8625 19.936C100.076 19.392 100.375 18.9227 100.759 18.528C101.153 18.1227 101.612 17.8134 102.135 17.6C102.668 17.376 103.249 17.264 103.879 17.264C104.508 17.264 105.079 17.376 105.591 17.6C106.113 17.8134 106.561 18.1227 106.935 18.528C107.308 18.9227 107.591 19.392 107.783 19.936C107.985 20.48 108.076 21.072 108.055 21.712L108.039 22.384H101.335L100.967 20.864H105.463L105.159 21.184V20.896C105.159 20.6934 105.105 20.5174 104.999 20.368C104.903 20.208 104.764 20.0854 104.583 20C104.401 19.9147 104.188 19.872 103.943 19.872C103.633 19.872 103.372 19.936 103.159 20.064C102.945 20.192 102.78 20.3734 102.663 20.608C102.556 20.8427 102.503 21.1254 102.503 21.456C102.503 21.84 102.583 22.176 102.743 22.464C102.913 22.752 103.159 22.976 103.479 23.136C103.809 23.296 104.215 23.376 104.695 23.376C105.015 23.376 105.287 23.3387 105.511 23.264C105.745 23.1787 105.991 23.0454 106.247 22.864L107.735 24.96C107.34 25.2694 106.951 25.5094 106.567 25.68C106.193 25.8507 105.82 25.9734 105.447 26.048C105.084 26.1227 104.711 26.16 104.327 26.16Z" fill="#1B1C57"/>
    <path d="M109.558 26V17.44H112.566L112.758 20.288L112.038 19.84C112.176 19.3494 112.395 18.912 112.694 18.528C112.992 18.1334 113.35 17.824 113.766 17.6C114.192 17.376 114.646 17.264 115.126 17.264C115.318 17.264 115.499 17.28 115.67 17.312C115.84 17.3334 116.006 17.3654 116.166 17.408L115.27 21.008C115.163 20.9334 114.992 20.864 114.758 20.8C114.534 20.736 114.288 20.704 114.022 20.704C113.83 20.704 113.654 20.736 113.494 20.8C113.344 20.8534 113.216 20.9387 113.11 21.056C113.014 21.1734 112.939 21.312 112.886 21.472C112.832 21.6321 112.806 21.8187 112.806 22.032V26H109.558Z" fill="#1B1C57"/>
  </symbol>
  <symbol id="tabs-home" viewBox="0 0 18 18">
    <path d="M18 8.83189V17.5C17.9999 17.7719 17.9262 18.0386 17.7868 18.272C17.6475 18.5054 17.4476 18.6968 17.2084 18.8259C16.9917 18.9432 16.7485 19.0031 16.5021 18.9999H11.9968C11.7978 18.9999 11.6071 18.9209 11.4664 18.7803C11.3258 18.6396 11.2468 18.4488 11.2468 18.2499V13.7493C11.2468 13.5504 11.1677 13.3596 11.0271 13.2189C10.8864 13.0783 10.6957 12.9993 10.4968 12.9993H7.49676C7.29784 12.9993 7.10708 13.0783 6.96643 13.2189C6.82577 13.3596 6.74676 13.5504 6.74676 13.7493V18.2499C6.74676 18.4488 6.66774 18.6396 6.52709 18.7803C6.38644 18.9209 6.19567 18.9999 5.99676 18.9999H1.50023C1.28758 19.0005 1.07726 18.9556 0.883385 18.8682C0.689506 18.7808 0.516538 18.653 0.376071 18.4934C0.12949 18.2082 -0.004257 17.8427 3.93466e-05 17.4657V8.8318C0.000202782 8.62281 0.0439502 8.41615 0.128487 8.22503C0.213025 8.0339 0.336494 7.86251 0.491008 7.7218L7.99035 0.903078C8.26582 0.650753 8.62582 0.510777 8.99939 0.510742C9.37296 0.510707 9.73299 0.650617 10.0085 0.90289L17.5092 7.72189C17.6636 7.86263 17.7871 8.03403 17.8716 8.22515C17.9561 8.41627 17.9999 8.62292 18 8.83189Z" />
  </symbol>
  <symbol id="tabs-villa" viewBox="0 0 18 18">
    <path d="M4 18H1C0.45 18 0 17.55 0 17V5.69C0 5.27 0.25 4.9 0.64 4.75L11.64 0.519999C11.7921 0.461321 11.9561 0.440698 12.118 0.459925C12.2798 0.479151 12.4345 0.537645 12.5686 0.630315C12.7027 0.722984 12.8121 0.84702 12.8873 0.991625C12.9624 1.13623 13.0012 1.29702 13 1.46V7H5C4.45 7 4 7.45 4 8V18ZM14 9H7C6.45 9 6 9.45 6 10V17C6 17.55 6.45 18 7 18H11V14C11 13.45 11.45 13 12 13C12.55 13 13 13.45 13 14V18H17C17.55 18 18 17.55 18 17V9C18 7.9 17.1 7 16 7C14.9 7 14 7.9 14 9Z" />
  </symbol>
  <symbol id="tabs-apartment" viewBox="0 0 18 18">
    <path d="M14 8V2C14 0.9 13.1 0 12 0H6C4.9 0 4 0.9 4 2V4H2C0.9 4 0 4.9 0 6V16C0 17.1 0.9 18 2 18H8V14H10V18H16C17.1 18 18 17.1 18 16V10C18 8.9 17.1 8 16 8H14ZM4 16H2V14H4V16ZM4 12H2V10H4V12ZM4 8H2V6H4V8ZM8 12H6V10H8V12ZM8 8H6V6H8V8ZM8 4H6V2H8V4ZM12 12H10V10H12V12ZM12 8H10V6H12V8ZM12 4H10V2H12V4ZM16 16H14V14H16V16ZM16 12H14V10H16V12Z" />
  </symbol>
  <symbol id="icon-facebook" viewBox="0 0 32 32">
    <path fill-rule="evenodd" clip-rule="evenodd" d="M32 16.0966C32 7.20754 24.8357 0 16 0C7.16429 0 0 7.20754 0 16.0966C0 24.1306 5.85001 30.7899 13.5 31.9984V20.751H9.43644V16.0966H13.5V12.5503C13.5 8.51683 15.8893 6.28701 19.5436 6.28701C21.2943 6.28701 23.1258 6.60177 23.1258 6.60177V10.5634H21.1071C19.1207 10.5634 18.4994 11.8037 18.4994 13.0785V16.0966H22.9364L22.2278 20.751H18.5001V32C26.1501 30.7919 32 24.1326 32 16.0966Z" fill="#1B1C57"/>
  </symbol>
  <symbol id="icon-twitter" viewBox="0 0 24 20">
    <path d="M24 2.3698C23.0997 2.77727 22.1472 3.04573 21.1724 3.16667C22.1968 2.54187 22.9672 1.54926 23.339 0.375009C22.3705 0.9649 21.3127 1.3788 20.2109 1.59897C19.7471 1.09247 19.189 0.689541 18.5709 0.414667C17.9529 0.139793 17.2875 -0.00128507 16.6155 8.82003e-06C13.8944 8.82003e-06 11.6925 2.26042 11.6925 5.04688C11.6905 5.43446 11.7332 5.8209 11.8195 6.19793C9.86833 6.10264 7.95775 5.58416 6.20998 4.67566C4.46221 3.76715 2.91574 2.48863 1.66949 0.921883C1.23228 1.68965 1.00106 2.56566 0.999998 3.45834C0.999998 5.20834 1.8765 6.75522 3.2 7.66146C2.41586 7.64208 1.64779 7.42589 0.960999 7.03125V7.09375C0.960999 9.54166 2.661 11.5781 4.911 12.0417C4.48789 12.1591 4.05188 12.2187 3.614 12.2188C3.30329 12.2193 2.99328 12.1879 2.6885 12.125C3.314 14.1302 5.1345 15.5886 7.29099 15.6302C5.53868 17.0369 3.3873 17.7973 1.175 17.7917C0.782308 17.7911 0.389982 17.7667 0 17.7187C2.25059 19.2157 4.86671 20.0076 7.53698 19.9999C16.605 19.9999 21.559 12.3072 21.559 5.63542C21.559 5.41668 21.5534 5.19792 21.5434 4.98438C22.5051 4.27191 23.3368 3.38653 24 2.3698Z" fill="#1B1C57"/>
  </symbol>
  <symbol id="icon-pinterest" viewBox="0 0 32 32">
    <path d="M16.0036 0C7.16589 0 0 7.16268 0 15.9964C0 22.545 3.94374 28.1724 9.58071 30.6503C9.53784 29.5362 9.57357 28.1938 9.85935 26.9797C10.1666 25.68 11.917 18.2601 11.917 18.2601C11.917 18.2601 11.4025 17.239 11.4025 15.7322C11.4025 13.3613 12.7743 11.5903 14.489 11.5903C15.9464 11.5903 16.6467 12.6829 16.6467 13.9897C16.6467 15.4537 15.7106 17.6389 15.232 19.667C14.8319 21.3667 16.0822 22.745 17.7611 22.745C20.7904 22.745 22.8337 18.853 22.8337 14.2397C22.8337 10.7333 20.4689 8.11248 16.175 8.11248C11.324 8.11248 8.29471 11.7331 8.29471 15.7751C8.29471 17.1676 8.7091 18.1531 9.35209 18.9101C9.645 19.26 9.68787 19.4028 9.58071 19.8027C9.50212 20.0955 9.33066 20.8025 9.25206 21.0882C9.1449 21.4953 8.81626 21.6381 8.45189 21.4881C6.21567 20.5739 5.17258 18.1317 5.17258 15.3751C5.17258 10.8333 9.00915 5.38452 16.6109 5.38452C22.7193 5.38452 26.7417 9.80495 26.7417 14.5468C26.7417 20.8239 23.2481 25.5086 18.104 25.5086C16.3752 25.5086 14.7533 24.5731 14.196 23.5162C14.196 23.5162 13.2673 27.201 13.0672 27.9152C12.7314 29.1507 12.067 30.379 11.4597 31.343C12.9328 31.7773 14.4606 31.9987 15.9964 32C24.8341 32 32 24.8372 32 16.0036C32 7.16982 24.8413 0 16.0036 0Z" fill="#1B1C57"/>
    <path fill-rule="evenodd" clip-rule="evenodd" d="M32 16.0966C32 7.20754 24.8357 0 16 0C7.16429 0 0 7.20754 0 16.0966C0 24.1306 5.85001 30.7899 13.5 31.9984V20.751H9.43644V16.0966H13.5V12.5503C13.5 8.51683 15.8893 6.28701 19.5436 6.28701C21.2943 6.28701 23.1258 6.60177 23.1258 6.60177V10.5634H21.1071C19.1207 10.5634 18.4994 11.8037 18.4994 13.0785V16.0966H22.9364L22.2278 20.751H18.5001V32C26.1501 30.7919 32 24.1326 32 16.0966Z" fill="#1B1C57"/>
  </symbol>
  </defs>
</svg>
