<svg fill="none" height="481" viewBox="0 0 688 481" width="688" xmlns="http://www.w3.org/2000/svg" xmlns:xlink="http://www.w3.org/1999/xlink"><filter id="a" color-interpolation-filters="sRGB" filterUnits="userSpaceOnUse" height="678" width="734" x="-293" y="-197"><feFlood flood-opacity="0" result="BackgroundImageFix"/><feBlend in="SourceGraphic" in2="BackgroundImageFix" mode="normal" result="shape"/><feGaussianBlur result="effect1_foregroundBlur_2_405" stdDeviation="60"/></filter><filter id="b" color-interpolation-filters="sRGB" filterUnits="userSpaceOnUse" height="678" width="734" x="-46" y="-282"><feFlood flood-opacity="0" result="BackgroundImageFix"/><feBlend in="SourceGraphic" in2="BackgroundImageFix" mode="normal" result="shape"/><feGaussianBlur result="effect1_foregroundBlur_2_405" stdDeviation="60"/></filter><g filter="url(#a)" opacity=".3"><path clip-rule="evenodd" d="m298.209 155.001c-11.036 34.668-36.295 61.189-59.172 89.461-19.711 24.359-40.717 46.073-65.745 64.911-27.878 20.983-54.17 50.185-89.0188 51.573-34.9617 1.393-64.3225-24.539-93.20574-44.312-27.15636-18.59-46.49256-44.207-69.90186-67.348-32.0396-31.674-87.3326-49.644-93.5996-94.285-6.059-43.156 37.923-76.6513 64.787-110.9403 23.8094-30.3895 50.3854-57.306 83.0845-77.7985 33.57712-21.0427 69.6441-48.2428 108.8357-42.4776 39.1278 5.7558 55.7648 55.7146 91.8148 71.9941 42.028 18.9789 104.667-7.1989 132.748 29.413 26.867 35.0303 2.768 87.7273-10.627 129.8093z" fill="#82f7ff" fill-rule="evenodd"/></g><g filter="url(#b)" opacity=".3"><path clip-rule="evenodd" d="m545.209 70.0007c-11.036 34.6683-36.295 61.1893-59.172 89.4613-19.711 24.359-40.717 46.073-65.745 64.911-27.878 20.983-54.17 50.185-89.019 51.573-34.962 1.393-64.322-24.539-93.206-44.312-27.156-18.59-46.492-44.207-69.901-67.348-32.04-31.674-87.3326-49.644-93.5999-94.2853-6.0588-43.1555 37.9229-76.65105 64.7869-110.94 23.809-30.3895 50.385-57.306 83.085-77.7987 33.577-21.043 69.644-48.243 108.835-42.477 39.128 5.755 55.765 55.714 91.815 71.9937 42.028 18.9789 104.667-7.1989 132.748 29.413 26.867 35.0303 2.768 87.7273-10.627 129.809z" fill="#82ffd2" fill-rule="evenodd"/></g></svg>