<svg fill="none" height="8" viewBox="0 0 14 8" width="14" xmlns="http://www.w3.org/2000/svg"><path d="m13.9982 1.13526c.0005-.264789-.0807-.521402-.2295-.72529-.0838-.114752-.1866-.209609-.3027-.279137-.1161-.0695278-.2431-.112361-.3738-.12604617-.1307-.01368516-.2625.00204684-.3878.04629457-.1253.0442478-.2418.1161406-.3426.2115646l-5.34812 5.077024-5.35811-4.895701c-.10207-.094136-.2195-.164435-.34556-.206855s-.25826-.056125-.388997-.040329c-.130739.015797-.25744.060784-.37282.132377-.115381.071593-.217167.168379-.299507.284796-.090835.117254-.1593508.254567-.2012469.403322-.04189618.14876-.05626802.30574-.0422143.4611.0140537.15537.0562299.30575.1238822.44172.067651.13598.159318.2546.269247.34843l5.986726 5.47367c.17853.16668.40248.2578.63359.2578.23112 0 .45506-.09112.6336-.2578l5.98673-5.66633c.1207-.11369.2162-.2581.2786-.42153s.09-.34126.0806-.51908z" fill="#888b97"/></svg>