<?xml version="1.0" encoding="utf-8"?>
<svg xmlns="http://www.w3.org/2000/svg">
  <defs>
  <symbol id="button-white-right-icon" viewBox="0 0 8 14">
    <path d="M1.13526 0.00180435C0.87047 0.00134945 0.613858 0.0825443 0.40997 0.231296C0.295217 0.315059 0.200361 0.417933 0.130833 0.534022C0.0613047 0.650112 0.0184714 0.777137 0.00478626 0.907824C-0.0088989 1.03851 0.00683311 1.17029 0.0510809 1.29562C0.0953286 1.42094 0.167222 1.53735 0.262645 1.63818L5.33967 6.98632L0.443969 12.3444C0.349833 12.4465 0.279534 12.5639 0.237114 12.69C0.194694 12.8161 0.180989 12.9482 0.196785 13.079C0.212582 13.2097 0.257569 13.3364 0.329162 13.4518C0.400755 13.5672 0.497541 13.669 0.613958 13.7513C0.731212 13.8421 0.868525 13.9107 1.01728 13.9526C1.16604 13.9945 1.32302 14.0088 1.47838 13.9948C1.63375 13.9807 1.78413 13.9385 1.9201 13.8709C2.05608 13.8032 2.1747 13.7116 2.26853 13.6016L7.7422 7.61492C7.90888 7.43638 8 7.21244 8 6.98133C8 6.75021 7.90888 6.52627 7.7422 6.34773L2.07587 0.361009C1.96218 0.240259 1.81777 0.144807 1.65434 0.0823965C1.49091 0.0199862 1.31308 -0.00762463 1.13526 0.00180435Z" />
  </symbol>
  <symbol id="button-white-bottom-icon" viewBox="0 0 10 6">
    <path d="M9.66544 0.75684C9.66575 0.580314 9.61162 0.409239 9.51245 0.273314C9.45661 0.196812 9.38803 0.133574 9.31063 0.0872222C9.23324 0.0408702 9.14856 0.0123147 9.06143 0.00319122C8.97431 -0.00593222 8.88645 0.00455578 8.8029 0.0340543C8.71935 0.0635528 8.64175 0.111482 8.57453 0.175097L5.0091 3.55978L1.43702 0.295979C1.36898 0.233222 1.29069 0.186356 1.20665 0.158076C1.12261 0.129796 1.03448 0.120659 0.947321 0.13119C0.860162 0.141721 0.775695 0.171713 0.698775 0.219441C0.621854 0.26717 0.553997 0.331694 0.499104 0.409305C0.438547 0.487475 0.39287 0.579017 0.364939 0.678187C0.337008 0.777357 0.327427 0.882014 0.336796 0.985589C0.346165 1.08916 0.374283 1.18942 0.419384 1.28007C0.464485 1.37072 0.525596 1.4498 0.598882 1.51235L4.59003 5.16146C4.70906 5.27259 4.85835 5.33333 5.01243 5.33333C5.1665 5.33333 5.3158 5.27259 5.43483 5.16146L9.42597 1.38391C9.50647 1.30812 9.57011 1.21185 9.61172 1.10289C9.65332 0.993942 9.67173 0.875384 9.66544 0.75684Z" />
  </symbol>
  <symbol id="button-cookies-close" viewBox="0 0 24 24">
    <path d="M4.92896 4.92896L19.0711 19.0711" stroke="#1B1C57" stroke-width="2" stroke-linecap="round" stroke-linejoin="round"/>
    <path d="M19.071 4.92896L4.92891 19.0711" stroke="#1B1C57" stroke-width="2" stroke-linecap="round" stroke-linejoin="round"/>
  </symbol>
  <symbol id="cookies-icon" viewBox="0 0 24 24">
    <path fill-rule="evenodd" clip-rule="evenodd" d="M18.3323 1.95679C18.8813 1.95679 19.3272 2.40489 19.3272 2.95666C19.3272 3.50843 18.8813 3.95653 18.3323 3.95653C17.7834 3.95653 17.3375 3.50843 17.3375 2.95666C17.3392 2.40489 17.7834 1.95679 18.3323 1.95679ZM18.5985 10.6647C19.4569 11.9522 20.5432 12.3468 21.9539 11.4756C22.0005 11.9605 22.0121 12.4554 21.9872 12.9571C21.7094 18.5015 17.0131 22.7702 11.4968 22.491C5.98213 22.2101 1.73508 17.4899 2.01289 11.9472C2.28904 6.40271 7.14828 2.08721 12.663 2.36643C12.1739 3.9047 12.5881 5.27075 13.8324 5.73557C12.7045 9.37724 15.2232 11.7599 18.5985 10.6647ZM6.99523 9.94741C7.82202 9.94741 8.49077 10.6212 8.49077 11.4506C8.49077 12.2799 7.82035 12.9537 6.99523 12.9537C6.16845 12.9537 5.4997 12.2799 5.4997 11.4506C5.4997 10.6212 6.17011 9.94741 6.99523 9.94741ZM11.7064 11.8635C12.1822 11.8635 12.5681 12.2515 12.5681 12.7297C12.5681 13.2079 12.1822 13.5958 11.7064 13.5958C11.2306 13.5958 10.8447 13.2079 10.8447 12.7297C10.843 12.2515 11.229 11.8635 11.7064 11.8635ZM7.96675 15.4317C8.54733 15.4317 9.01811 15.9048 9.01811 16.4884C9.01811 17.0719 8.54733 17.5451 7.96675 17.5451C7.38617 17.5451 6.91538 17.0719 6.91538 16.4884C6.91538 15.9032 7.38617 15.4317 7.96675 15.4317ZM10.2325 7.34573C10.6883 7.34573 11.056 7.71692 11.056 8.17338C11.056 8.63152 10.6867 9.00104 10.2325 9.00104C9.77669 9.00104 9.40905 8.62985 9.40905 8.17338C9.40905 7.71692 9.77836 7.34573 10.2325 7.34573ZM14.7075 15.8012C15.471 15.8012 16.0882 16.4232 16.0882 17.189C16.0882 17.9564 15.4694 18.5767 14.7075 18.5767C13.9439 18.5767 13.3267 17.9547 13.3267 17.189C13.3267 16.4232 13.9456 15.8012 14.7075 15.8012ZM17.6154 5.81917C18.1277 5.81917 18.5436 6.23718 18.5436 6.75216C18.5436 7.26715 18.1277 7.68515 17.6154 7.68515C17.103 7.68515 16.6871 7.26715 16.6871 6.75216C16.6871 6.23718 17.103 5.81917 17.6154 5.81917Z" />
  </symbol>
  </defs>
</svg>

